<svg width="28" height="28" viewBox="0 0 28 28" fill="none" xmlns="http://www.w3.org/2000/svg">
<path d="M7.59998 10H20.3348C20.6 10 20.8543 9.89464 21.0419 9.70711C21.2294 9.51957 21.3348 9.26522 21.3348 9C21.3348 8.73478 21.2294 8.48043 21.0419 8.29289C20.8543 8.10536 20.6 8 20.3348 8H7.59998C7.33476 8 7.08041 8.10536 6.89287 8.29289C6.70533 8.48043 6.59998 8.73478 6.59998 9C6.59998 9.26522 6.70533 9.51957 6.89287 9.70711C7.08041 9.89464 7.33476 10 7.59998 10ZM20.3348 18H7.59998C7.33476 18 7.08041 18.1054 6.89287 18.2929C6.70533 18.4804 6.59998 18.7348 6.59998 19C6.59998 19.2652 6.70533 19.5196 6.89287 19.7071C7.08041 19.8946 7.33476 20 7.59998 20H20.3348C20.6 20 20.8543 19.8946 21.0419 19.7071C21.2294 19.5196 21.3348 19.2652 21.3348 19C21.3348 18.7348 21.2294 18.4804 21.0419 18.2929C20.8543 18.1054 20.6 18 20.3348 18ZM20.3348 13H7.59998C7.33476 13 7.08041 13.1054 6.89287 13.2929C6.70533 13.4804 6.59998 13.7348 6.59998 14C6.59998 14.2652 6.70533 14.5196 6.89287 14.7071C7.08041 14.8946 7.33476 15 7.59998 15H20.3348C20.6 15 20.8543 14.8946 21.0419 14.7071C21.2294 14.5196 21.3348 14.2652 21.3348 14C21.3348 13.7348 21.2294 13.4804 21.0419 13.2929C20.8543 13.1054 20.6 13 20.3348 13Z" fill="#7380AD"/>
</svg>
